<svg enable-background="new 0 0 622 124" viewBox="0 0 622 124" xmlns="http://www.w3.org/2000/svg"><g fill="#fff"><path d="m142.7 76.7-7.2-.6c-5.6-.5-7.8-2.7-7.8-6.5 0-4.5 3.5-7.4 10-7.4 4.6 0 8.7 1.1 11.9 3.5l4.3-4.3c-4-3.3-9.7-4.8-16.1-4.8-9.5 0-16.4 4.9-16.4 13.1 0 7.4 4.6 11.3 13.4 12l7.4.6c5.2.5 7.4 2.6 7.4 6.5 0 5.3-4.5 7.9-11.9 7.9-5.5 0-10.4-1.5-13.9-5.2l-4.4 4.4c4.9 4.7 10.8 6.4 18.3 6.4 10.8 0 18.2-5 18.2-13.6 0-8.2-5.4-11.2-13.2-12zm55.9-20c-7.2 0-11.7 1.4-15.6 6.4-.1.1 4.3 4.3 4.3 4.3 2.6-3.7 5.5-5.1 11.3-5.1 8.2 0 11.4 3.3 11.4 9.8v4.3h-13.4c-10 0-15.4 5.1-15.4 12.9-.1 3.3 1.1 6.6 3.4 9.1 2.8 2.9 6.4 4.1 12.6 4.1 6 0 9.3-1.2 12.9-4.8v4.3h6.5v-30.4c-.1-9.8-6-14.9-18-14.9zm11.4 29.4c0 3.7-.7 6.3-2.3 7.7-2.8 2.7-6.2 3-10 3-7.1 0-10.3-2.5-10.3-7.6 0-5.2 3.3-7.9 10-7.9h12.6zm32.1-23.6c4.3 0 6.9 1.3 10.3 5 0 0 4.4-4.3 4.3-4.3-4.6-4.9-8.5-6.5-14.6-6.5-11.3 0-19.8 7.6-19.8 22.9s8.5 22.9 19.8 22.9c6.2 0 10.1-1.6 14.7-6.6l-4.5-4.3c-3.4 3.7-6 5.1-10.3 5.1-4.1.2-8-1.7-10.4-5.1-2.1-2.9-2.9-6.4-2.9-12s.8-9.1 2.9-12c2.5-3.4 6.4-5.3 10.5-5.1zm56-5.3h-8.1l-20.3 19.7v-39.6h-6.5v64.7h6.5v-16.3l7.9-8 15 24.3h8.1l-18.5-28.8zm30.2-1.1c-6.7 0-11.2 2.6-14 5.6-4.1 4.3-5.1 9.4-5.1 17.6 0 8.3 1 13.4 5.1 17.7 2.8 3 7.3 5.6 14 5.6s11.3-2.6 14.1-5.6c4.1-4.3 5.1-9.4 5.1-17.7 0-8.2-1-13.3-5.1-17.6-2.7-3-7.4-5.6-14.1-5.6zm5.3 34.2c-1.4 1.4-3.3 2.1-5.3 2-1.9.1-3.8-.6-5.2-2-2.4-2.3-2.6-6.4-2.6-11.1s.3-8.6 2.6-11c1.4-1.4 3.3-2.1 5.2-2 2-.1 3.9.6 5.3 2 2.3 2.4 2.6 6.3 2.6 11s-.2 8.7-2.6 11.1zm44.1-33.7-9.1 28-9.2-28h-11.9l16.7 45.3h8.9l16.6-45.3zm31.2-.5c-11.7 0-19.8 8.4-19.8 23.2 0 18.4 10.3 23.2 21 23.2 8.2 0 12.6-2.5 17.2-7.1l-6.9-6.7c-2.9 2.9-5.3 4.3-10.3 4.3-6.4 0-9.9-4.3-9.9-10.1h28.4v-5c0-12.6-7.1-21.8-19.7-21.8zm-8.6 18.9c0-1.7.4-3.3 1-4.9 1.4-2.9 4.4-4.7 7.6-4.7s6.1 1.8 7.6 4.7c.7 1.5 1 3.2 1 4.9zm45-14.1v-4.4h-11.1v45.3h11.3v-27.2c0-5.7 3.8-8.4 7.3-8.4 2.3-.1 4.5.9 6 2.7l8.6-8.6c-3.1-3.1-6.3-4.3-10.7-4.3-4.3 0-8.4 1.8-11.4 4.9zm25.6-9.1v50h11.3v-35.7h8.4v-8.6h-8.4v-5c0-2.6 1.3-4.1 4-4.1h4.4v-9.6h-6.4c-9.3.1-13.3 6.6-13.3 13zm66.3 4.2c-6.7 0-11.2 2.6-14 5.6-4.1 4.3-5.1 9.4-5.1 17.6 0 8.3 1 13.4 5.1 17.7 2.8 3 7.3 5.6 14 5.6s11.3-2.6 14.1-5.6c4.1-4.3 5.1-9.4 5.1-17.7 0-8.2-1-13.3-5.1-17.6-2.8-2.9-7.4-5.6-14.1-5.6zm5.3 34.3c-1.4 1.4-3.3 2.1-5.3 2-1.9.1-3.8-.6-5.2-2-2.3-2.3-2.6-6.4-2.6-11.1s.3-8.6 2.6-11c1.4-1.4 3.3-2.1 5.2-2 2-.1 3.9.6 5.3 2 2.3 2.3 2.6 6.3 2.6 11s-.3 8.7-2.6 11.1zm67.4-33.7-7.3 28-9.3-28h-8.3l-9.2 28-7.3-28h-12l13.9 45.3h9.3l9.5-28.5 9.5 28.5h9.3l13.8-45.3zm-102.6 31.7v-49.4h-11.3v50.1c0 6.4 3.9 13 13.2 13h6.4v-9.6h-4.4c-2.8-.1-3.9-1.4-3.9-4.1zm-333.3-24.1 6-6h-12.4v-14.7h-6.5v46.4c0 6.6 3.8 12 11.4 12h4.6v-5.6h-3.4c-4.2 0-6.1-2.5-6.1-6.5v-25.6z"/><path d="m88 80h11v44h-99v-44h11v33h77z"/><path d="m23 76.7 54 11.4 2.3-10.8-54-11.4zm7.1-25.8 50 23.3 4.7-10-50-23.3zm13.9-24.6 42.4 35.3 7.1-8.5-42.4-35.3zm27.4-26.1-8.9 6.6 32.9 44.3 8.9-6.6zm-49.4 101.8h55v-11h-55z"/></g></svg>